  0
SECTION
  2
HEADER
  9
$ACADVER
  1
AC1009
  9
$EXTMIN
 10
0.0
 20
0.0
 30
0.0
  9
$INSBASE
 10
0.0
 20
0.0
 30
0.0
  9
$EXTMAX
 10
100.0
 20
100.0
 30
0.0
  0
ENDSEC
  0
SECTION
  2
TABLES
  0
TABLE
  2
LTYPE
 70
19
  0
LTYPE
  2
CENTERX2
 70
0
  3
Center (2x) ________  __  ________  __  ________
 72
65
 73
4
 40
3.5
 49
2.5
 49
-0.25
 49
0.5
 49
-0.25
  0
LTYPE
  2
CENTER2
 70
0
  3
Center (.5x) ____ _ ____ _ ____ _ ____ _ ____
 72
65
 73
4
 40
1.0
 49
0.625
 49
-0.125
 49
0.125
 49
-0.125
  0
LTYPE
  2
CONTINUOUS
 70
0
  3
Solid
 72
65
 73
0
 40
0.0
  0
LTYPE
  2
DASHED
 70
0
  3
Dashed __ __ __ __ __ __ __ __ __ __ __ __ __ _
 72
65
 73
2
 40
0.6
 49
0.5
 49
-0.1
  0
LTYPE
  2
DIVIDEX2
 70
0
  3
Divide (2x) ____  . .  ____  . .  ____  . .  ____
 72
65
 73
6
 40
2.6
 49
2.0
 49
-0.2
 49
0.0
 49
-0.2
 49
0.0
 49
-0.2
  0
LTYPE
  2
CENTER
 70
0
  3
Center ____ _ ____ _ ____ _ ____ _ ____ _ ____
 72
65
 73
4
 40
2.0
 49
1.25
 49
-0.25
 49
0.25
 49
-0.25
  0
LTYPE
  2
DOT
 70
0
  3
Dot .  .  .  .  .  .  .  .  .  .  .  .  .  .  .  .
 72
65
 73
2
 40
0.2
 49
0.0
 49
-0.2
  0
LTYPE
  2
PHANTOMX2
 70
0
  3
Phantom (2x)____________    ____    ____    ____________
 72
65
 73
6
 40
4.25
 49
2.5
 49
-0.25
 49
0.5
 49
-0.25
 49
0.5
 49
-0.25
  0
LTYPE
  2
DASHEDX2
 70
0
  3
Dashed (2x) ____  ____  ____  ____  ____  ____
 72
65
 73
2
 40
1.2
 49
1.0
 49
-0.2
  0
LTYPE
  2
DOT2
 70
0
  3
Dot (.5) . . . . . . . . . . . . . . . . . . . 
 72
65
 73
2
 40
0.1
 49
0.0
 49
-0.1
  0
LTYPE
  2
PHANTOM
 70
0
  3
Phantom ______  __  __  ______  __  __  ______
 72
65
 73
6
 40
2.5
 49
1.25
 49
-0.25
 49
0.25
 49
-0.25
 49
0.25
 49
-0.25
  0
LTYPE
  2
DASHDOT2
 70
0
  3
Dash dot (.5x) _ . _ . _ . _ . _ . _ . _ . _
 72
65
 73
4
 40
0.7
 49
0.5
 49
-0.1
 49
0.0
 49
-0.1
  0
LTYPE
  2
DIVIDE2
 70
0
  3
Divide(.5x) _ . _ . _ . _ . _ . _ . _ . _
 72
65
 73
6
 40
0.8
 49
0.5
 49
-0.1
 49
0.0
 49
-0.1
 49
0.0
 49
-0.1
  0
LTYPE
  2
PHANTOM2
 70
0
  3
Phantom (.5x) ___ _ _ ___ _ _ ___ _ _ ___ _ _ ___
 72
65
 73
6
 40
1.25
 49
0.625
 49
-0.125
 49
0.125
 49
-0.125
 49
0.125
 49
-0.125
  0
LTYPE
  2
DASHED2
 70
0
  3
Dashed (.5x) _ _ _ _ _ _ _ _ _ _ _ _ _ _
 72
65
 73
2
 40
0.3
 49
0.25
 49
-0.05
  0
LTYPE
  2
DASHDOT
 70
0
  3
Dash dot __ . __ . __ . __ . __ . __ . __ . __
 72
65
 73
4
 40
1.4
 49
1.0
 49
-0.2
 49
0.0
 49
-0.2
  0
LTYPE
  2
DASHDOTX2
 70
0
  3
Dash dot (2x) ____  .  ____  .  ____  .  ____
 72
65
 73
4
 40
2.4
 49
2.0
 49
-0.2
 49
0.0
 49
-0.2
  0
LTYPE
  2
DOTX2
 70
0
  3
Dot (2x) .    .    .    .    .    .    .    . 
 72
65
 73
2
 40
0.4
 49
0.0
 49
-0.4
  0
LTYPE
  2
DIVIDE
 70
0
  3
Divide __ . . __ . . __ . . __ . . __ . . __
 72
65
 73
6
 40
1.6
 49
1.0
 49
-0.2
 49
0.0
 49
-0.2
 49
0.0
 49
-0.2
  0
ENDTAB
  0
TABLE
  2
LAYER
 70
6
  0
LAYER
  2
TABLECONTENT
 70
0
 62
1
  6
CONTINUOUS
  0
LAYER
  2
TABLEGRID
 70
0
 62
1
  6
CONTINUOUS
  0
LAYER
  2
VIEWPORTS
 70
0
 62
7
  6
CONTINUOUS
  0
LAYER
  2
DIMENSIONS
 70
0
 62
1
  6
CONTINUOUS
  0
LAYER
  2
TABLEBACKGROUND
 70
0
 62
1
  6
CONTINUOUS
  0
LAYER
  2
layer1
 70
0
 62
0
  6
CONTINUOUS
  0
ENDTAB
  0
TABLE
  2
STYLE
 70
12
  0
STYLE
  2
ARIAL_BOLD
 70
0
 40
0.0
 41
1.0
 42
1.0
 50
0.0
 71
0
  3
arialbd.ttf
  4

  0
STYLE
  2
TIMES_BOLD
 70
0
 40
0.0
 41
1.0
 42
1.0
 50
0.0
 71
0
  3
timesbd.ttf
  4

  0
STYLE
  2
ARIAL
 70
0
 40
0.0
 41
1.0
 42
1.0
 50
0.0
 71
0
  3
arial.ttf
  4

  0
STYLE
  2
TIMES_BOLD_ITALIC
 70
0
 40
0.0
 41
1.0
 42
1.0
 50
0.0
 71
0
  3
timesbi.ttf
  4

  0
STYLE
  2
ISOCPEUR_ITALIC
 70
0
 40
0.0
 41
1.0
 42
1.0
 50
0.0
 71
0
  3
isocpeui.ttf
  4

  0
STYLE
  2
ARIAL_BLACK
 70
0
 40
0.0
 41
1.0
 42
1.0
 50
0.0
 71
0
  3
ariblk.ttf
  4

  0
STYLE
  2
TIMES_ITALIC
 70
0
 40
0.0
 41
1.0
 42
1.0
 50
0.0
 71
0
  3
timesi.ttf
  4

  0
STYLE
  2
STANDARD
 70
0
 40
0.0
 41
1.0
 42
1.0
 50
0.0
 71
0
  3
arial.ttf
  4

  0
STYLE
  2
ARIAL_ITALIC
 70
0
 40
0.0
 41
1.0
 42
1.0
 50
0.0
 71
0
  3
ariali.ttf
  4

  0
STYLE
  2
ARIAL_BOLD_ITALIC
 70
0
 40
0.0
 41
1.0
 42
1.0
 50
0.0
 71
0
  3
arialbi.ttf
  4

  0
STYLE
  2
ISOCPEUR
 70
0
 40
0.0
 41
1.0
 42
1.0
 50
0.0
 71
0
  3
isocpeur.ttf
  4

  0
STYLE
  2
TIMES
 70
0
 40
0.0
 41
1.0
 42
1.0
 50
0.0
 71
0
  3
times.ttf
  4

  0
ENDTAB
  0
TABLE
  2
VIEW
 70
0
  0
ENDTAB
  0
TABLE
  2
APPID
 70
1
  0
APPID
  2
DXFWRITE
 70
0
  0
ENDTAB
  0
TABLE
  2
VPORT
 70
0
  0
ENDTAB
  0
TABLE
  2
UCS
 70
0
  0
ENDTAB
  0
ENDSEC
  0
SECTION
  2
BLOCKS
  0
ENDSEC
  0
SECTION
  2
ENTITIES
  0
VIEWPORT
  8
VIEWPORTS
 67
1
 10
0.0
 20
0.0
 30
0.0
 40
1.0
 41
1.0
 68
1
 69
1
1001
ACAD
1000
MVIEW
1002
{
1070
16
1010
0.0
1020
0.0
1030
0.0
1010
0.0
1020
0.0
1030
0.0
1040
0.0
1040
1.0
1040
0.0
1040
0.0
1040
50.0
1040
0.0
1040
0.0
1070
0
1070
100
1070
1
1070
3
1070
0
1070
0
1070
0
1070
0
1040
0.0
1040
0.0
1040
0.0
1040
0.1
1040
0.1
1040
0.1
1040
0.1
1070
0
1002
{
1002
}
1002
}
  0
ARC
 62
0
  8
0
 10
11.0
 20
-18.0
 30
0.0
 40
1.0
 50
90.0
 51
180.0
  0
LINE
 62
0
  8
0
 10
11.0
 20
-17.0
 30
0.0
 11
13.0
 21
-17.0
 31
0.0
  0
ARC
 62
0
  8
0
 10
14.0
 20
-17.0
 30
0.0
 40
1.0
 50
180.0
 51
270.0
  0
LINE
 62
0
  8
0
 10
14.0
 20
-18.0
 30
0.0
 11
17.0
 21
-18.0
 31
0.0
  0
ARC
 62
0
  8
0
 10
17.0
 20
-17.0
 30
0.0
 40
1.0
 50
270.0
 51
0.0
  0
LINE
 62
0
  8
0
 10
18.0
 20
-17.0
 30
0.0
 11
57.0
 21
-17.0
 31
0.0
  0
ARC
 62
0
  8
0
 10
57.0
 20
-18.0
 30
0.0
 40
1.0
 50
0.0
 51
90.0
  0
LINE
 62
0
  8
0
 10
58.0
 20
-18.0
 30
0.0
 11
58.0
 21
-26.0
 31
0.0
  0
ARC
 62
0
  8
0
 10
57.0
 20
-26.0
 30
0.0
 40
1.0
 50
270.0
 51
0.0
  0
LINE
 62
0
  8
0
 10
57.0
 20
-27.0
 30
0.0
 11
18.0
 21
-27.0
 31
0.0
  0
ARC
 62
0
  8
0
 10
17.0
 20
-27.0
 30
0.0
 40
1.0
 50
270.0
 51
0.0
  0
LINE
 62
0
  8
0
 10
17.0
 20
-28.0
 30
0.0
 11
14.0
 21
-28.0
 31
0.0
  0
ARC
 62
0
  8
0
 10
14.0
 20
-27.0
 30
0.0
 40
1.0
 50
180.0
 51
270.0
  0
LINE
 62
0
  8
0
 10
13.0
 20
-27.0
 30
0.0
 11
11.0
 21
-27.0
 31
0.0
  0
ARC
 62
0
  8
0
 10
11.0
 20
-26.0
 30
0.0
 40
1.0
 50
180.0
 51
270.0
  0
LINE
 62
0
  8
0
 10
10.0
 20
-26.0
 30
0.0
 11
10.0
 21
-18.0
 31
0.0
  0
ARC
 62
0
  8
0
 10
31.0
 20
-20.5
 30
0.0
 40
1.0
 50
90.0
 51
180.0
  0
LINE
 62
0
  8
0
 10
31.0
 20
-19.5
 30
0.0
 11
37.0
 21
-19.5
 31
0.0
  0
ARC
 62
0
  8
0
 10
37.0
 20
-20.5
 30
0.0
 40
1.0
 50
0.0
 51
90.0
  0
LINE
 62
0
  8
0
 10
38.0
 20
-20.5
 30
0.0
 11
38.0
 21
-23.5
 31
0.0
  0
ARC
 62
0
  8
0
 10
37.0
 20
-23.5
 30
0.0
 40
1.0
 50
270.0
 51
0.0
  0
LINE
 62
0
  8
0
 10
37.0
 20
-24.5
 30
0.0
 11
31.0
 21
-24.5
 31
0.0
  0
ARC
 62
0
  8
0
 10
31.0
 20
-23.5
 30
0.0
 40
1.0
 50
180.0
 51
270.0
  0
LINE
 62
0
  8
0
 10
30.0
 20
-23.5
 30
0.0
 11
30.0
 21
-20.5
 31
0.0
  0
TEXT
 62
1
  8
layer1
 10
0.0
 20
0.0
 30
0.0
 40
5.0
  1
wait
 72
2
 11
28.0
 21
-24.5
 31
0.0
  0
TEXT
 62
1
  8
layer1
 10
40.0
 20
-24.5
 30
0.0
 40
5.0
  1
secs
 50
0.0
  0
ARC
 62
0
  8
0
 10
11.0
 20
-45.0
 30
0.0
 40
1.0
 50
90.0
 51
180.0
  0
LINE
 62
0
  8
0
 10
11.0
 20
-44.0
 30
0.0
 11
13.0
 21
-44.0
 31
0.0
  0
ARC
 62
0
  8
0
 10
14.0
 20
-44.0
 30
0.0
 40
1.0
 50
180.0
 51
270.0
  0
LINE
 62
0
  8
0
 10
14.0
 20
-45.0
 30
0.0
 11
17.0
 21
-45.0
 31
0.0
  0
ARC
 62
0
  8
0
 10
17.0
 20
-44.0
 30
0.0
 40
1.0
 50
270.0
 51
0.0
  0
LINE
 62
0
  8
0
 10
18.0
 20
-44.0
 30
0.0
 11
68.0
 21
-44.0
 31
0.0
  0
ARC
 62
0
  8
0
 10
68.0
 20
-45.0
 30
0.0
 40
1.0
 50
0.0
 51
90.0
  0
LINE
 62
0
  8
0
 10
69.0
 20
-45.0
 30
0.0
 11
69.0
 21
-53.0
 31
0.0
  0
ARC
 62
0
  8
0
 10
68.0
 20
-53.0
 30
0.0
 40
1.0
 50
270.0
 51
0.0
  0
LINE
 62
0
  8
0
 10
68.0
 20
-54.0
 30
0.0
 11
18.0
 21
-54.0
 31
0.0
  0
ARC
 62
0
  8
0
 10
17.0
 20
-54.0
 30
0.0
 40
1.0
 50
270.0
 51
0.0
  0
LINE
 62
0
  8
0
 10
17.0
 20
-55.0
 30
0.0
 11
14.0
 21
-55.0
 31
0.0
  0
ARC
 62
0
  8
0
 10
14.0
 20
-54.0
 30
0.0
 40
1.0
 50
180.0
 51
270.0
  0
LINE
 62
0
  8
0
 10
13.0
 20
-54.0
 30
0.0
 11
11.0
 21
-54.0
 31
0.0
  0
ARC
 62
0
  8
0
 10
11.0
 20
-53.0
 30
0.0
 40
1.0
 50
180.0
 51
270.0
  0
LINE
 62
0
  8
0
 10
10.0
 20
-53.0
 30
0.0
 11
10.0
 21
-45.0
 31
0.0
  0
ARC
 62
0
  8
0
 10
36.0
 20
-47.5
 30
0.0
 40
1.0
 50
90.0
 51
180.0
  0
LINE
 62
0
  8
0
 10
36.0
 20
-46.5
 30
0.0
 11
42.0
 21
-46.5
 31
0.0
  0
ARC
 62
0
  8
0
 10
42.0
 20
-47.5
 30
0.0
 40
1.0
 50
0.0
 51
90.0
  0
LINE
 62
0
  8
0
 10
43.0
 20
-47.5
 30
0.0
 11
43.0
 21
-50.5
 31
0.0
  0
ARC
 62
0
  8
0
 10
42.0
 20
-50.5
 30
0.0
 40
1.0
 50
270.0
 51
0.0
  0
LINE
 62
0
  8
0
 10
42.0
 20
-51.5
 30
0.0
 11
36.0
 21
-51.5
 31
0.0
  0
ARC
 62
0
  8
0
 10
36.0
 20
-50.5
 30
0.0
 40
1.0
 50
180.0
 51
270.0
  0
LINE
 62
0
  8
0
 10
35.0
 20
-50.5
 30
0.0
 11
35.0
 21
-47.5
 31
0.0
  0
TEXT
 62
1
  8
layer1
 10
0.0
 20
0.0
 30
0.0
 40
5.0
  1
move
 72
2
 11
33.0
 21
-51.5
 31
0.0
  0
TEXT
 62
1
  8
layer1
 10
45.0
 20
-51.5
 30
0.0
 40
5.0
  1
steps
 50
0.0
  0
ARC
 62
0
  8
0
 10
11.0
 20
-72.0
 30
0.0
 40
1.0
 50
90.0
 51
180.0
  0
LINE
 62
0
  8
0
 10
11.0
 20
-71.0
 30
0.0
 11
13.0
 21
-71.0
 31
0.0
  0
ARC
 62
0
  8
0
 10
14.0
 20
-71.0
 30
0.0
 40
1.0
 50
180.0
 51
270.0
  0
LINE
 62
0
  8
0
 10
14.0
 20
-72.0
 30
0.0
 11
17.0
 21
-72.0
 31
0.0
  0
ARC
 62
0
  8
0
 10
17.0
 20
-71.0
 30
0.0
 40
1.0
 50
270.0
 51
0.0
  0
LINE
 62
0
  8
0
 10
18.0
 20
-71.0
 30
0.0
 11
78.0
 21
-71.0
 31
0.0
  0
ARC
 62
0
  8
0
 10
78.0
 20
-72.0
 30
0.0
 40
1.0
 50
0.0
 51
90.0
  0
LINE
 62
0
  8
0
 10
79.0
 20
-72.0
 30
0.0
 11
79.0
 21
-80.0
 31
0.0
  0
ARC
 62
0
  8
0
 10
78.0
 20
-80.0
 30
0.0
 40
1.0
 50
270.0
 51
0.0
  0
LINE
 62
0
  8
0
 10
78.0
 20
-81.0
 30
0.0
 11
18.0
 21
-81.0
 31
0.0
  0
ARC
 62
0
  8
0
 10
17.0
 20
-81.0
 30
0.0
 40
1.0
 50
270.0
 51
0.0
  0
LINE
 62
0
  8
0
 10
17.0
 20
-82.0
 30
0.0
 11
14.0
 21
-82.0
 31
0.0
  0
ARC
 62
0
  8
0
 10
14.0
 20
-81.0
 30
0.0
 40
1.0
 50
180.0
 51
270.0
  0
LINE
 62
0
  8
0
 10
13.0
 20
-81.0
 30
0.0
 11
11.0
 21
-81.0
 31
0.0
  0
ARC
 62
0
  8
0
 10
11.0
 20
-80.0
 30
0.0
 40
1.0
 50
180.0
 51
270.0
  0
LINE
 62
0
  8
0
 10
10.0
 20
-80.0
 30
0.0
 11
10.0
 21
-72.0
 31
0.0
  0
TEXT
 62
1
  8
layer1
 10
0.0
 20
0.0
 30
0.0
 40
5.0
  1
turn
 72
2
 11
32.0
 21
-78.5
 31
0.0
  0
ARC
 39
2.0
 62
1
  8
0
 10
36.0
 20
-77.5
 30
0.0
 40
2.0
 50
180.0
 51
0.0
  0
ARC
 39
2.0
 62
1
  8
0
 10
36.0
 20
-77.5
 30
0.0
 40
2.0
 50
0.0
 51
90.0
  0
LINE
 62
1
  8
0
 10
34.0
 20
-75.5
 30
0.0
 11
36.0
 21
-73.5
 31
0.0
  0
LINE
 62
1
  8
0
 10
36.0
 20
-73.5
 30
0.0
 11
36.0
 21
-77.5
 31
0.0
  0
LINE
 62
1
  8
0
 10
36.0
 20
-77.5
 30
0.0
 11
34.0
 21
-75.5
 31
0.0
  0
ARC
 62
0
  8
0
 10
42.0
 20
-74.5
 30
0.0
 40
1.0
 50
90.0
 51
180.0
  0
LINE
 62
0
  8
0
 10
42.0
 20
-73.5
 30
0.0
 11
48.0
 21
-73.5
 31
0.0
  0
ARC
 62
0
  8
0
 10
48.0
 20
-74.5
 30
0.0
 40
1.0
 50
0.0
 51
90.0
  0
LINE
 62
0
  8
0
 10
49.0
 20
-74.5
 30
0.0
 11
49.0
 21
-77.5
 31
0.0
  0
ARC
 62
0
  8
0
 10
48.0
 20
-77.5
 30
0.0
 40
1.0
 50
270.0
 51
0.0
  0
LINE
 62
0
  8
0
 10
48.0
 20
-78.5
 30
0.0
 11
42.0
 21
-78.5
 31
0.0
  0
ARC
 62
0
  8
0
 10
42.0
 20
-77.5
 30
0.0
 40
1.0
 50
180.0
 51
270.0
  0
LINE
 62
0
  8
0
 10
41.0
 20
-77.5
 30
0.0
 11
41.0
 21
-74.5
 31
0.0
  0
TEXT
 62
1
  8
layer1
 10
51.0
 20
-78.5
 30
0.0
 40
5.0
  1
degrees
 50
0.0
  0
ARC
 62
0
  8
0
 10
11.0
 20
-99.0
 30
0.0
 40
1.0
 50
90.0
 51
180.0
  0
LINE
 62
0
  8
0
 10
11.0
 20
-98.0
 30
0.0
 11
13.0
 21
-98.0
 31
0.0
  0
ARC
 62
0
  8
0
 10
14.0
 20
-98.0
 30
0.0
 40
1.0
 50
180.0
 51
270.0
  0
LINE
 62
0
  8
0
 10
14.0
 20
-99.0
 30
0.0
 11
17.0
 21
-99.0
 31
0.0
  0
ARC
 62
0
  8
0
 10
17.0
 20
-98.0
 30
0.0
 40
1.0
 50
270.0
 51
0.0
  0
LINE
 62
0
  8
0
 10
18.0
 20
-98.0
 30
0.0
 11
78.0
 21
-98.0
 31
0.0
  0
ARC
 62
0
  8
0
 10
78.0
 20
-99.0
 30
0.0
 40
1.0
 50
0.0
 51
90.0
  0
LINE
 62
0
  8
0
 10
79.0
 20
-99.0
 30
0.0
 11
79.0
 21
-107.0
 31
0.0
  0
ARC
 62
0
  8
0
 10
78.0
 20
-107.0
 30
0.0
 40
1.0
 50
270.0
 51
0.0
  0
LINE
 62
0
  8
0
 10
78.0
 20
-108.0
 30
0.0
 11
18.0
 21
-108.0
 31
0.0
  0
ARC
 62
0
  8
0
 10
17.0
 20
-108.0
 30
0.0
 40
1.0
 50
270.0
 51
0.0
  0
LINE
 62
0
  8
0
 10
17.0
 20
-109.0
 30
0.0
 11
14.0
 21
-109.0
 31
0.0
  0
ARC
 62
0
  8
0
 10
14.0
 20
-108.0
 30
0.0
 40
1.0
 50
180.0
 51
270.0
  0
LINE
 62
0
  8
0
 10
13.0
 20
-108.0
 30
0.0
 11
11.0
 21
-108.0
 31
0.0
  0
ARC
 62
0
  8
0
 10
11.0
 20
-107.0
 30
0.0
 40
1.0
 50
180.0
 51
270.0
  0
LINE
 62
0
  8
0
 10
10.0
 20
-107.0
 30
0.0
 11
10.0
 21
-99.0
 31
0.0
  0
TEXT
 62
1
  8
layer1
 10
0.0
 20
0.0
 30
0.0
 40
5.0
  1
turn
 72
2
 11
32.0
 21
-105.5
 31
0.0
  0
ARC
 62
1
  8
0
 10
36.0
 20
-102.5
 30
0.0
 40
2.0
 50
0.0
 51
270.0
  0
LINE
 62
1
  8
0
 10
38.0
 20
-104.5
 30
0.0
 11
36.0
 21
-102.5
 31
0.0
  0
LINE
 62
1
  8
0
 10
36.0
 20
-102.5
 30
0.0
 11
40.0
 21
-102.5
 31
0.0
  0
LINE
 62
1
  8
0
 10
40.0
 20
-102.5
 30
0.0
 11
38.0
 21
-104.5
 31
0.0
  0
ARC
 62
0
  8
0
 10
42.0
 20
-101.5
 30
0.0
 40
1.0
 50
90.0
 51
180.0
  0
LINE
 62
0
  8
0
 10
42.0
 20
-100.5
 30
0.0
 11
48.0
 21
-100.5
 31
0.0
  0
ARC
 62
0
  8
0
 10
48.0
 20
-101.5
 30
0.0
 40
1.0
 50
0.0
 51
90.0
  0
LINE
 62
0
  8
0
 10
49.0
 20
-101.5
 30
0.0
 11
49.0
 21
-104.5
 31
0.0
  0
ARC
 62
0
  8
0
 10
48.0
 20
-104.5
 30
0.0
 40
1.0
 50
270.0
 51
0.0
  0
LINE
 62
0
  8
0
 10
48.0
 20
-105.5
 30
0.0
 11
42.0
 21
-105.5
 31
0.0
  0
ARC
 62
0
  8
0
 10
42.0
 20
-104.5
 30
0.0
 40
1.0
 50
180.0
 51
270.0
  0
LINE
 62
0
  8
0
 10
41.0
 20
-104.5
 30
0.0
 11
41.0
 21
-101.5
 31
0.0
  0
TEXT
 62
1
  8
layer1
 10
51.0
 20
-105.5
 30
0.0
 40
5.0
  1
degrees
 50
0.0
  0
ARC
 62
0
  8
0
 10
12.0
 20
-127.0
 30
0.0
 40
2.0
 50
90.0
 51
180.0
  0
LINE
 62
0
  8
0
 10
12.0
 20
-125.0
 30
0.0
 11
14.0
 21
-125.0
 31
0.0
  0
ARC
 62
0
  8
0
 10
15.0
 20
-125.0
 30
0.0
 40
1.0
 50
180.0
 51
270.0
  0
LINE
 62
0
  8
0
 10
15.0
 20
-126.0
 30
0.0
 11
18.0
 21
-126.0
 31
0.0
  0
ARC
 62
0
  8
0
 10
18.0
 20
-125.0
 30
0.0
 40
1.0
 50
270.0
 51
0.0
  0
LINE
 62
0
  8
0
 10
19.0
 20
-125.0
 30
0.0
 11
49.0
 21
-125.0
 31
0.0
  0
ARC
 62
0
  8
0
 10
49.0
 20
-127.0
 30
0.0
 40
2.0
 50
0.0
 51
90.0
  0
LINE
 62
0
  8
0
 10
51.0
 20
-127.0
 30
0.0
 11
51.0
 21
-138.0
 31
0.0
  0
LINE
 62
0
  8
0
 10
51.0
 20
-138.0
 30
0.0
 11
22.0
 21
-138.0
 31
0.0
  0
ARC
 62
0
  8
0
 10
21.0
 20
-138.0
 30
0.0
 40
1.0
 50
270.0
 51
0.0
  0
LINE
 62
0
  8
0
 10
21.0
 20
-139.0
 30
0.0
 11
18.0
 21
-139.0
 31
0.0
  0
ARC
 62
0
  8
0
 10
18.0
 20
-138.0
 30
0.0
 40
1.0
 50
180.0
 51
270.0
  0
LINE
 62
0
  8
0
 10
17.0
 20
-138.0
 30
0.0
 11
10.0
 21
-138.0
 31
0.0
  0
LINE
 62
0
  8
0
 10
10.0
 20
-138.0
 30
0.0
 11
10.0
 21
-127.0
 31
0.0
  0
ARC
 62
0
  8
0
 10
41.0
 20
-128.5
 30
0.0
 40
1.0
 50
90.0
 51
180.0
  0
LINE
 62
0
  8
0
 10
41.0
 20
-127.5
 30
0.0
 11
47.0
 21
-127.5
 31
0.0
  0
ARC
 62
0
  8
0
 10
47.0
 20
-128.5
 30
0.0
 40
1.0
 50
0.0
 51
90.0
  0
LINE
 62
0
  8
0
 10
48.0
 20
-128.5
 30
0.0
 11
48.0
 21
-131.5
 31
0.0
  0
ARC
 62
0
  8
0
 10
47.0
 20
-131.5
 30
0.0
 40
1.0
 50
270.0
 51
0.0
  0
LINE
 62
0
  8
0
 10
47.0
 20
-132.5
 30
0.0
 11
41.0
 21
-132.5
 31
0.0
  0
ARC
 62
0
  8
0
 10
41.0
 20
-131.5
 30
0.0
 40
1.0
 50
180.0
 51
270.0
  0
LINE
 62
0
  8
0
 10
40.0
 20
-131.5
 30
0.0
 11
40.0
 21
-128.5
 31
0.0
  0
TEXT
 62
1
  8
layer1
 10
0.0
 20
0.0
 30
0.0
 40
5.0
  1
repeat
 72
2
 11
39.0
 21
-132.5
 31
0.0
  0
ARC
 62
0
  8
0
 10
12.0
 20
-154.0
 30
0.0
 40
2.0
 50
90.0
 51
180.0
  0
LINE
 62
0
  8
0
 10
12.0
 20
-152.0
 30
0.0
 11
14.0
 21
-152.0
 31
0.0
  0
ARC
 62
0
  8
0
 10
15.0
 20
-152.0
 30
0.0
 40
1.0
 50
180.0
 51
270.0
  0
LINE
 62
0
  8
0
 10
15.0
 20
-153.0
 30
0.0
 11
18.0
 21
-153.0
 31
0.0
  0
ARC
 62
0
  8
0
 10
18.0
 20
-152.0
 30
0.0
 40
1.0
 50
270.0
 51
0.0
  0
LINE
 62
0
  8
0
 10
19.0
 20
-152.0
 30
0.0
 11
49.0
 21
-152.0
 31
0.0
  0
ARC
 62
0
  8
0
 10
49.0
 20
-154.0
 30
0.0
 40
2.0
 50
0.0
 51
90.0
  0
LINE
 62
0
  8
0
 10
51.0
 20
-154.0
 30
0.0
 11
51.0
 21
-165.0
 31
0.0
  0
LINE
 62
0
  8
0
 10
51.0
 20
-165.0
 30
0.0
 11
22.0
 21
-165.0
 31
0.0
  0
ARC
 62
0
  8
0
 10
21.0
 20
-165.0
 30
0.0
 40
1.0
 50
270.0
 51
0.0
  0
LINE
 62
0
  8
0
 10
21.0
 20
-166.0
 30
0.0
 11
18.0
 21
-166.0
 31
0.0
  0
ARC
 62
0
  8
0
 10
18.0
 20
-165.0
 30
0.0
 40
1.0
 50
180.0
 51
270.0
  0
LINE
 62
0
  8
0
 10
17.0
 20
-165.0
 30
0.0
 11
10.0
 21
-165.0
 31
0.0
  0
LINE
 62
0
  8
0
 10
10.0
 20
-165.0
 30
0.0
 11
10.0
 21
-154.0
 31
0.0
  0
ARC
 62
0
  8
0
 10
41.0
 20
-155.5
 30
0.0
 40
1.0
 50
90.0
 51
180.0
  0
LINE
 62
0
  8
0
 10
41.0
 20
-154.5
 30
0.0
 11
47.0
 21
-154.5
 31
0.0
  0
ARC
 62
0
  8
0
 10
47.0
 20
-155.5
 30
0.0
 40
1.0
 50
0.0
 51
90.0
  0
LINE
 62
0
  8
0
 10
48.0
 20
-155.5
 30
0.0
 11
48.0
 21
-158.5
 31
0.0
  0
ARC
 62
0
  8
0
 10
47.0
 20
-158.5
 30
0.0
 40
1.0
 50
270.0
 51
0.0
  0
LINE
 62
0
  8
0
 10
47.0
 20
-159.5
 30
0.0
 11
41.0
 21
-159.5
 31
0.0
  0
ARC
 62
0
  8
0
 10
41.0
 20
-158.5
 30
0.0
 40
1.0
 50
180.0
 51
270.0
  0
LINE
 62
0
  8
0
 10
40.0
 20
-158.5
 30
0.0
 11
40.0
 21
-155.5
 31
0.0
  0
TEXT
 62
1
  8
layer1
 10
0.0
 20
0.0
 30
0.0
 40
5.0
  1
forever
 72
2
 11
39.0
 21
-159.5
 31
0.0
  0
LINE
 62
0
  8
0
 10
10.0
 20
-179.0
 30
0.0
 11
17.0
 21
-179.0
 31
0.0
  0
ARC
 62
0
  8
0
 10
18.0
 20
-179.0
 30
0.0
 40
1.0
 50
180.0
 51
270.0
  0
LINE
 62
0
  8
0
 10
18.0
 20
-180.0
 30
0.0
 11
21.0
 21
-180.0
 31
0.0
  0
ARC
 62
0
  8
0
 10
21.0
 20
-179.0
 30
0.0
 40
1.0
 50
270.0
 51
0.0
  0
LINE
 62
0
  8
0
 10
22.0
 20
-179.0
 30
0.0
 11
51.0
 21
-179.0
 31
0.0
  0
LINE
 62
0
  8
0
 10
51.0
 20
-179.0
 30
0.0
 11
51.0
 21
-185.0
 31
0.0
  0
ARC
 62
0
  8
0
 10
49.0
 20
-185.0
 30
0.0
 40
2.0
 50
270.0
 51
0.0
  0
LINE
 62
0
  8
0
 10
49.0
 20
-187.0
 30
0.0
 11
19.0
 21
-187.0
 31
0.0
  0
ARC
 62
0
  8
0
 10
18.0
 20
-187.0
 30
0.0
 40
1.0
 50
270.0
 51
0.0
  0
LINE
 62
0
  8
0
 10
18.0
 20
-188.0
 30
0.0
 11
15.0
 21
-188.0
 31
0.0
  0
ARC
 62
0
  8
0
 10
15.0
 20
-187.0
 30
0.0
 40
1.0
 50
180.0
 51
270.0
  0
LINE
 62
0
  8
0
 10
14.0
 20
-187.0
 30
0.0
 11
12.0
 21
-187.0
 31
0.0
  0
ARC
 62
0
  8
0
 10
12.0
 20
-185.0
 30
0.0
 40
2.0
 50
180.0
 51
270.0
  0
LINE
 62
0
  8
0
 10
10.0
 20
-185.0
 30
0.0
 11
10.0
 21
-179.0
 31
0.0
  0
LINE
 62
1
  8
0
 10
37.0
 20
-185.5
 30
0.0
 11
41.0
 21
-185.5
 31
0.0
  0
ARC
 62
1
  8
0
 10
41.0
 20
-183.5
 30
0.0
 40
2.0
 50
270.0
 51
0.0
  0
LINE
 62
1
  8
0
 10
43.0
 20
-181.5
 30
0.0
 11
39.0
 21
-183.5
 31
0.0
  0
LINE
 62
1
  8
0
 10
39.0
 20
-183.5
 30
0.0
 11
47.0
 21
-183.5
 31
0.0
  0
LINE
 62
1
  8
0
 10
47.0
 20
-183.5
 30
0.0
 11
43.0
 21
-181.5
 31
0.0
  0
LINE
 62
0
  8
0
 10
10.0
 20
-206.0
 30
0.0
 11
17.0
 21
-206.0
 31
0.0
  0
ARC
 62
0
  8
0
 10
18.0
 20
-206.0
 30
0.0
 40
1.0
 50
180.0
 51
270.0
  0
LINE
 62
0
  8
0
 10
18.0
 20
-207.0
 30
0.0
 11
21.0
 21
-207.0
 31
0.0
  0
ARC
 62
0
  8
0
 10
21.0
 20
-206.0
 30
0.0
 40
1.0
 50
270.0
 51
0.0
  0
LINE
 62
0
  8
0
 10
22.0
 20
-206.0
 30
0.0
 11
51.0
 21
-206.0
 31
0.0
  0
LINE
 62
0
  8
0
 10
51.0
 20
-206.0
 30
0.0
 11
51.0
 21
-212.0
 31
0.0
  0
ARC
 62
0
  8
0
 10
49.0
 20
-212.0
 30
0.0
 40
2.0
 50
270.0
 51
0.0
  0
LINE
 62
0
  8
0
 10
49.0
 20
-214.0
 30
0.0
 11
12.0
 21
-214.0
 31
0.0
  0
ARC
 62
0
  8
0
 10
12.0
 20
-212.0
 30
0.0
 40
2.0
 50
180.0
 51
270.0
  0
LINE
 62
0
  8
0
 10
10.0
 20
-212.0
 30
0.0
 11
10.0
 21
-206.0
 31
0.0
  0
LINE
 62
1
  8
0
 10
37.0
 20
-212.5
 30
0.0
 11
41.0
 21
-212.5
 31
0.0
  0
ARC
 62
1
  8
0
 10
41.0
 20
-210.5
 30
0.0
 40
2.0
 50
270.0
 51
0.0
  0
LINE
 62
1
  8
0
 10
43.0
 20
-208.5
 30
0.0
 11
39.0
 21
-210.5
 31
0.0
  0
LINE
 62
1
  8
0
 10
39.0
 20
-210.5
 30
0.0
 11
47.0
 21
-210.5
 31
0.0
  0
LINE
 62
1
  8
0
 10
47.0
 20
-210.5
 30
0.0
 11
43.0
 21
-208.5
 31
0.0
  0
ARC
 62
0
  8
0
 10
11.0
 20
-234.0
 30
0.0
 40
1.0
 50
90.0
 51
180.0
  0
LINE
 62
0
  8
0
 10
11.0
 20
-233.0
 30
0.0
 11
13.0
 21
-233.0
 31
0.0
  0
ARC
 62
0
  8
0
 10
14.0
 20
-233.0
 30
0.0
 40
1.0
 50
180.0
 51
270.0
  0
LINE
 62
0
  8
0
 10
14.0
 20
-234.0
 30
0.0
 11
17.0
 21
-234.0
 31
0.0
  0
ARC
 62
0
  8
0
 10
17.0
 20
-233.0
 30
0.0
 40
1.0
 50
270.0
 51
0.0
  0
LINE
 62
0
  8
0
 10
18.0
 20
-233.0
 30
0.0
 11
57.0
 21
-233.0
 31
0.0
  0
ARC
 62
0
  8
0
 10
57.0
 20
-234.0
 30
0.0
 40
1.0
 50
0.0
 51
90.0
  0
LINE
 62
0
  8
0
 10
58.0
 20
-234.0
 30
0.0
 11
58.0
 21
-242.0
 31
0.0
  0
ARC
 62
0
  8
0
 10
57.0
 20
-242.0
 30
0.0
 40
1.0
 50
270.0
 51
0.0
  0
LINE
 62
0
  8
0
 10
57.0
 20
-243.0
 30
0.0
 11
18.0
 21
-243.0
 31
0.0
  0
ARC
 62
0
  8
0
 10
17.0
 20
-243.0
 30
0.0
 40
1.0
 50
270.0
 51
0.0
  0
LINE
 62
0
  8
0
 10
17.0
 20
-244.0
 30
0.0
 11
14.0
 21
-244.0
 31
0.0
  0
ARC
 62
0
  8
0
 10
14.0
 20
-243.0
 30
0.0
 40
1.0
 50
180.0
 51
270.0
  0
LINE
 62
0
  8
0
 10
13.0
 20
-243.0
 30
0.0
 11
11.0
 21
-243.0
 31
0.0
  0
ARC
 62
0
  8
0
 10
11.0
 20
-242.0
 30
0.0
 40
1.0
 50
180.0
 51
270.0
  0
LINE
 62
0
  8
0
 10
10.0
 20
-242.0
 30
0.0
 11
10.0
 21
-234.0
 31
0.0
  0
ARC
 62
0
  8
0
 10
31.0
 20
-236.5
 30
0.0
 40
1.0
 50
90.0
 51
180.0
  0
LINE
 62
0
  8
0
 10
31.0
 20
-235.5
 30
0.0
 11
37.0
 21
-235.5
 31
0.0
  0
ARC
 62
0
  8
0
 10
37.0
 20
-236.5
 30
0.0
 40
1.0
 50
0.0
 51
90.0
  0
LINE
 62
0
  8
0
 10
38.0
 20
-236.5
 30
0.0
 11
38.0
 21
-239.5
 31
0.0
  0
ARC
 62
0
  8
0
 10
37.0
 20
-239.5
 30
0.0
 40
1.0
 50
270.0
 51
0.0
  0
LINE
 62
0
  8
0
 10
37.0
 20
-240.5
 30
0.0
 11
31.0
 21
-240.5
 31
0.0
  0
ARC
 62
0
  8
0
 10
31.0
 20
-239.5
 30
0.0
 40
1.0
 50
180.0
 51
270.0
  0
LINE
 62
0
  8
0
 10
30.0
 20
-239.5
 30
0.0
 11
30.0
 21
-236.5
 31
0.0
  0
ARC
 62
0
  8
0
 10
11.0
 20
-261.0
 30
0.0
 40
1.0
 50
90.0
 51
180.0
  0
LINE
 62
0
  8
0
 10
11.0
 20
-260.0
 30
0.0
 11
13.0
 21
-260.0
 31
0.0
  0
ARC
 62
0
  8
0
 10
14.0
 20
-260.0
 30
0.0
 40
1.0
 50
180.0
 51
270.0
  0
LINE
 62
0
  8
0
 10
14.0
 20
-261.0
 30
0.0
 11
17.0
 21
-261.0
 31
0.0
  0
ARC
 62
0
  8
0
 10
17.0
 20
-260.0
 30
0.0
 40
1.0
 50
270.0
 51
0.0
  0
LINE
 62
0
  8
0
 10
18.0
 20
-260.0
 30
0.0
 11
68.0
 21
-260.0
 31
0.0
  0
ARC
 62
0
  8
0
 10
68.0
 20
-261.0
 30
0.0
 40
1.0
 50
0.0
 51
90.0
  0
LINE
 62
0
  8
0
 10
69.0
 20
-261.0
 30
0.0
 11
69.0
 21
-269.0
 31
0.0
  0
ARC
 62
0
  8
0
 10
68.0
 20
-269.0
 30
0.0
 40
1.0
 50
270.0
 51
0.0
  0
LINE
 62
0
  8
0
 10
68.0
 20
-270.0
 30
0.0
 11
18.0
 21
-270.0
 31
0.0
  0
ARC
 62
0
  8
0
 10
17.0
 20
-270.0
 30
0.0
 40
1.0
 50
270.0
 51
0.0
  0
LINE
 62
0
  8
0
 10
17.0
 20
-271.0
 30
0.0
 11
14.0
 21
-271.0
 31
0.0
  0
ARC
 62
0
  8
0
 10
14.0
 20
-270.0
 30
0.0
 40
1.0
 50
180.0
 51
270.0
  0
LINE
 62
0
  8
0
 10
13.0
 20
-270.0
 30
0.0
 11
11.0
 21
-270.0
 31
0.0
  0
ARC
 62
0
  8
0
 10
11.0
 20
-269.0
 30
0.0
 40
1.0
 50
180.0
 51
270.0
  0
LINE
 62
0
  8
0
 10
10.0
 20
-269.0
 30
0.0
 11
10.0
 21
-261.0
 31
0.0
  0
ARC
 62
0
  8
0
 10
36.0
 20
-263.5
 30
0.0
 40
1.0
 50
90.0
 51
180.0
  0
LINE
 62
0
  8
0
 10
36.0
 20
-262.5
 30
0.0
 11
42.0
 21
-262.5
 31
0.0
  0
ARC
 62
0
  8
0
 10
42.0
 20
-263.5
 30
0.0
 40
1.0
 50
0.0
 51
90.0
  0
LINE
 62
0
  8
0
 10
43.0
 20
-263.5
 30
0.0
 11
43.0
 21
-266.5
 31
0.0
  0
ARC
 62
0
  8
0
 10
42.0
 20
-266.5
 30
0.0
 40
1.0
 50
270.0
 51
0.0
  0
LINE
 62
0
  8
0
 10
42.0
 20
-267.5
 30
0.0
 11
36.0
 21
-267.5
 31
0.0
  0
ARC
 62
0
  8
0
 10
36.0
 20
-266.5
 30
0.0
 40
1.0
 50
180.0
 51
270.0
  0
LINE
 62
0
  8
0
 10
35.0
 20
-266.5
 30
0.0
 11
35.0
 21
-263.5
 31
0.0
  0
ARC
 62
0
  8
0
 10
11.0
 20
-288.0
 30
0.0
 40
1.0
 50
90.0
 51
180.0
  0
LINE
 62
0
  8
0
 10
11.0
 20
-287.0
 30
0.0
 11
13.0
 21
-287.0
 31
0.0
  0
ARC
 62
0
  8
0
 10
14.0
 20
-287.0
 30
0.0
 40
1.0
 50
180.0
 51
270.0
  0
LINE
 62
0
  8
0
 10
14.0
 20
-288.0
 30
0.0
 11
17.0
 21
-288.0
 31
0.0
  0
ARC
 62
0
  8
0
 10
17.0
 20
-287.0
 30
0.0
 40
1.0
 50
270.0
 51
0.0
  0
LINE
 62
0
  8
0
 10
18.0
 20
-287.0
 30
0.0
 11
78.0
 21
-287.0
 31
0.0
  0
ARC
 62
0
  8
0
 10
78.0
 20
-288.0
 30
0.0
 40
1.0
 50
0.0
 51
90.0
  0
LINE
 62
0
  8
0
 10
79.0
 20
-288.0
 30
0.0
 11
79.0
 21
-296.0
 31
0.0
  0
ARC
 62
0
  8
0
 10
78.0
 20
-296.0
 30
0.0
 40
1.0
 50
270.0
 51
0.0
  0
LINE
 62
0
  8
0
 10
78.0
 20
-297.0
 30
0.0
 11
18.0
 21
-297.0
 31
0.0
  0
ARC
 62
0
  8
0
 10
17.0
 20
-297.0
 30
0.0
 40
1.0
 50
270.0
 51
0.0
  0
LINE
 62
0
  8
0
 10
17.0
 20
-298.0
 30
0.0
 11
14.0
 21
-298.0
 31
0.0
  0
ARC
 62
0
  8
0
 10
14.0
 20
-297.0
 30
0.0
 40
1.0
 50
180.0
 51
270.0
  0
LINE
 62
0
  8
0
 10
13.0
 20
-297.0
 30
0.0
 11
11.0
 21
-297.0
 31
0.0
  0
ARC
 62
0
  8
0
 10
11.0
 20
-296.0
 30
0.0
 40
1.0
 50
180.0
 51
270.0
  0
LINE
 62
0
  8
0
 10
10.0
 20
-296.0
 30
0.0
 11
10.0
 21
-288.0
 31
0.0
  0
ARC
 62
0
  8
0
 10
42.0
 20
-290.5
 30
0.0
 40
1.0
 50
90.0
 51
180.0
  0
LINE
 62
0
  8
0
 10
42.0
 20
-289.5
 30
0.0
 11
48.0
 21
-289.5
 31
0.0
  0
ARC
 62
0
  8
0
 10
48.0
 20
-290.5
 30
0.0
 40
1.0
 50
0.0
 51
90.0
  0
LINE
 62
0
  8
0
 10
49.0
 20
-290.5
 30
0.0
 11
49.0
 21
-293.5
 31
0.0
  0
ARC
 62
0
  8
0
 10
48.0
 20
-293.5
 30
0.0
 40
1.0
 50
270.0
 51
0.0
  0
LINE
 62
0
  8
0
 10
48.0
 20
-294.5
 30
0.0
 11
42.0
 21
-294.5
 31
0.0
  0
ARC
 62
0
  8
0
 10
42.0
 20
-293.5
 30
0.0
 40
1.0
 50
180.0
 51
270.0
  0
LINE
 62
0
  8
0
 10
41.0
 20
-293.5
 30
0.0
 11
41.0
 21
-290.5
 31
0.0
  0
ARC
 62
0
  8
0
 10
11.0
 20
-315.0
 30
0.0
 40
1.0
 50
90.0
 51
180.0
  0
LINE
 62
0
  8
0
 10
11.0
 20
-314.0
 30
0.0
 11
13.0
 21
-314.0
 31
0.0
  0
ARC
 62
0
  8
0
 10
14.0
 20
-314.0
 30
0.0
 40
1.0
 50
180.0
 51
270.0
  0
LINE
 62
0
  8
0
 10
14.0
 20
-315.0
 30
0.0
 11
17.0
 21
-315.0
 31
0.0
  0
ARC
 62
0
  8
0
 10
17.0
 20
-314.0
 30
0.0
 40
1.0
 50
270.0
 51
0.0
  0
LINE
 62
0
  8
0
 10
18.0
 20
-314.0
 30
0.0
 11
78.0
 21
-314.0
 31
0.0
  0
ARC
 62
0
  8
0
 10
78.0
 20
-315.0
 30
0.0
 40
1.0
 50
0.0
 51
90.0
  0
LINE
 62
0
  8
0
 10
79.0
 20
-315.0
 30
0.0
 11
79.0
 21
-323.0
 31
0.0
  0
ARC
 62
0
  8
0
 10
78.0
 20
-323.0
 30
0.0
 40
1.0
 50
270.0
 51
0.0
  0
LINE
 62
0
  8
0
 10
78.0
 20
-324.0
 30
0.0
 11
18.0
 21
-324.0
 31
0.0
  0
ARC
 62
0
  8
0
 10
17.0
 20
-324.0
 30
0.0
 40
1.0
 50
270.0
 51
0.0
  0
LINE
 62
0
  8
0
 10
17.0
 20
-325.0
 30
0.0
 11
14.0
 21
-325.0
 31
0.0
  0
ARC
 62
0
  8
0
 10
14.0
 20
-324.0
 30
0.0
 40
1.0
 50
180.0
 51
270.0
  0
LINE
 62
0
  8
0
 10
13.0
 20
-324.0
 30
0.0
 11
11.0
 21
-324.0
 31
0.0
  0
ARC
 62
0
  8
0
 10
11.0
 20
-323.0
 30
0.0
 40
1.0
 50
180.0
 51
270.0
  0
LINE
 62
0
  8
0
 10
10.0
 20
-323.0
 30
0.0
 11
10.0
 21
-315.0
 31
0.0
  0
ARC
 62
0
  8
0
 10
42.0
 20
-317.5
 30
0.0
 40
1.0
 50
90.0
 51
180.0
  0
LINE
 62
0
  8
0
 10
42.0
 20
-316.5
 30
0.0
 11
48.0
 21
-316.5
 31
0.0
  0
ARC
 62
0
  8
0
 10
48.0
 20
-317.5
 30
0.0
 40
1.0
 50
0.0
 51
90.0
  0
LINE
 62
0
  8
0
 10
49.0
 20
-317.5
 30
0.0
 11
49.0
 21
-320.5
 31
0.0
  0
ARC
 62
0
  8
0
 10
48.0
 20
-320.5
 30
0.0
 40
1.0
 50
270.0
 51
0.0
  0
LINE
 62
0
  8
0
 10
48.0
 20
-321.5
 30
0.0
 11
42.0
 21
-321.5
 31
0.0
  0
ARC
 62
0
  8
0
 10
42.0
 20
-320.5
 30
0.0
 40
1.0
 50
180.0
 51
270.0
  0
LINE
 62
0
  8
0
 10
41.0
 20
-320.5
 30
0.0
 11
41.0
 21
-317.5
 31
0.0
  0
ARC
 62
0
  8
0
 10
12.0
 20
-343.0
 30
0.0
 40
2.0
 50
90.0
 51
180.0
  0
LINE
 62
0
  8
0
 10
12.0
 20
-341.0
 30
0.0
 11
14.0
 21
-341.0
 31
0.0
  0
ARC
 62
0
  8
0
 10
15.0
 20
-341.0
 30
0.0
 40
1.0
 50
180.0
 51
270.0
  0
LINE
 62
0
  8
0
 10
15.0
 20
-342.0
 30
0.0
 11
18.0
 21
-342.0
 31
0.0
  0
ARC
 62
0
  8
0
 10
18.0
 20
-341.0
 30
0.0
 40
1.0
 50
270.0
 51
0.0
  0
LINE
 62
0
  8
0
 10
19.0
 20
-341.0
 30
0.0
 11
49.0
 21
-341.0
 31
0.0
  0
ARC
 62
0
  8
0
 10
49.0
 20
-343.0
 30
0.0
 40
2.0
 50
0.0
 51
90.0
  0
LINE
 62
0
  8
0
 10
51.0
 20
-343.0
 30
0.0
 11
51.0
 21
-354.0
 31
0.0
  0
LINE
 62
0
  8
0
 10
51.0
 20
-354.0
 30
0.0
 11
22.0
 21
-354.0
 31
0.0
  0
ARC
 62
0
  8
0
 10
21.0
 20
-354.0
 30
0.0
 40
1.0
 50
270.0
 51
0.0
  0
LINE
 62
0
  8
0
 10
21.0
 20
-355.0
 30
0.0
 11
18.0
 21
-355.0
 31
0.0
  0
ARC
 62
0
  8
0
 10
18.0
 20
-354.0
 30
0.0
 40
1.0
 50
180.0
 51
270.0
  0
LINE
 62
0
  8
0
 10
17.0
 20
-354.0
 30
0.0
 11
10.0
 21
-354.0
 31
0.0
  0
LINE
 62
0
  8
0
 10
10.0
 20
-354.0
 30
0.0
 11
10.0
 21
-343.0
 31
0.0
  0
ARC
 62
0
  8
0
 10
41.0
 20
-344.5
 30
0.0
 40
1.0
 50
90.0
 51
180.0
  0
LINE
 62
0
  8
0
 10
41.0
 20
-343.5
 30
0.0
 11
47.0
 21
-343.5
 31
0.0
  0
ARC
 62
0
  8
0
 10
47.0
 20
-344.5
 30
0.0
 40
1.0
 50
0.0
 51
90.0
  0
LINE
 62
0
  8
0
 10
48.0
 20
-344.5
 30
0.0
 11
48.0
 21
-347.5
 31
0.0
  0
ARC
 62
0
  8
0
 10
47.0
 20
-347.5
 30
0.0
 40
1.0
 50
270.0
 51
0.0
  0
LINE
 62
0
  8
0
 10
47.0
 20
-348.5
 30
0.0
 11
41.0
 21
-348.5
 31
0.0
  0
ARC
 62
0
  8
0
 10
41.0
 20
-347.5
 30
0.0
 40
1.0
 50
180.0
 51
270.0
  0
LINE
 62
0
  8
0
 10
40.0
 20
-347.5
 30
0.0
 11
40.0
 21
-344.5
 31
0.0
  0
ARC
 62
0
  8
0
 10
12.0
 20
-370.0
 30
0.0
 40
2.0
 50
90.0
 51
180.0
  0
LINE
 62
0
  8
0
 10
12.0
 20
-368.0
 30
0.0
 11
14.0
 21
-368.0
 31
0.0
  0
ARC
 62
0
  8
0
 10
15.0
 20
-368.0
 30
0.0
 40
1.0
 50
180.0
 51
270.0
  0
LINE
 62
0
  8
0
 10
15.0
 20
-369.0
 30
0.0
 11
18.0
 21
-369.0
 31
0.0
  0
ARC
 62
0
  8
0
 10
18.0
 20
-368.0
 30
0.0
 40
1.0
 50
270.0
 51
0.0
  0
LINE
 62
0
  8
0
 10
19.0
 20
-368.0
 30
0.0
 11
49.0
 21
-368.0
 31
0.0
  0
ARC
 62
0
  8
0
 10
49.0
 20
-370.0
 30
0.0
 40
2.0
 50
0.0
 51
90.0
  0
LINE
 62
0
  8
0
 10
51.0
 20
-370.0
 30
0.0
 11
51.0
 21
-381.0
 31
0.0
  0
LINE
 62
0
  8
0
 10
51.0
 20
-381.0
 30
0.0
 11
22.0
 21
-381.0
 31
0.0
  0
ARC
 62
0
  8
0
 10
21.0
 20
-381.0
 30
0.0
 40
1.0
 50
270.0
 51
0.0
  0
LINE
 62
0
  8
0
 10
21.0
 20
-382.0
 30
0.0
 11
18.0
 21
-382.0
 31
0.0
  0
ARC
 62
0
  8
0
 10
18.0
 20
-381.0
 30
0.0
 40
1.0
 50
180.0
 51
270.0
  0
LINE
 62
0
  8
0
 10
17.0
 20
-381.0
 30
0.0
 11
10.0
 21
-381.0
 31
0.0
  0
LINE
 62
0
  8
0
 10
10.0
 20
-381.0
 30
0.0
 11
10.0
 21
-370.0
 31
0.0
  0
ARC
 62
0
  8
0
 10
41.0
 20
-371.5
 30
0.0
 40
1.0
 50
90.0
 51
180.0
  0
LINE
 62
0
  8
0
 10
41.0
 20
-370.5
 30
0.0
 11
47.0
 21
-370.5
 31
0.0
  0
ARC
 62
0
  8
0
 10
47.0
 20
-371.5
 30
0.0
 40
1.0
 50
0.0
 51
90.0
  0
LINE
 62
0
  8
0
 10
48.0
 20
-371.5
 30
0.0
 11
48.0
 21
-374.5
 31
0.0
  0
ARC
 62
0
  8
0
 10
47.0
 20
-374.5
 30
0.0
 40
1.0
 50
270.0
 51
0.0
  0
LINE
 62
0
  8
0
 10
47.0
 20
-375.5
 30
0.0
 11
41.0
 21
-375.5
 31
0.0
  0
ARC
 62
0
  8
0
 10
41.0
 20
-374.5
 30
0.0
 40
1.0
 50
180.0
 51
270.0
  0
LINE
 62
0
  8
0
 10
40.0
 20
-374.5
 30
0.0
 11
40.0
 21
-371.5
 31
0.0
  0
LINE
 62
0
  8
0
 10
10.0
 20
-395.0
 30
0.0
 11
17.0
 21
-395.0
 31
0.0
  0
ARC
 62
0
  8
0
 10
18.0
 20
-395.0
 30
0.0
 40
1.0
 50
180.0
 51
270.0
  0
LINE
 62
0
  8
0
 10
18.0
 20
-396.0
 30
0.0
 11
21.0
 21
-396.0
 31
0.0
  0
ARC
 62
0
  8
0
 10
21.0
 20
-395.0
 30
0.0
 40
1.0
 50
270.0
 51
0.0
  0
LINE
 62
0
  8
0
 10
22.0
 20
-395.0
 30
0.0
 11
51.0
 21
-395.0
 31
0.0
  0
LINE
 62
0
  8
0
 10
51.0
 20
-395.0
 30
0.0
 11
51.0
 21
-401.0
 31
0.0
  0
ARC
 62
0
  8
0
 10
49.0
 20
-401.0
 30
0.0
 40
2.0
 50
270.0
 51
0.0
  0
LINE
 62
0
  8
0
 10
49.0
 20
-403.0
 30
0.0
 11
19.0
 21
-403.0
 31
0.0
  0
ARC
 62
0
  8
0
 10
18.0
 20
-403.0
 30
0.0
 40
1.0
 50
270.0
 51
0.0
  0
LINE
 62
0
  8
0
 10
18.0
 20
-404.0
 30
0.0
 11
15.0
 21
-404.0
 31
0.0
  0
ARC
 62
0
  8
0
 10
15.0
 20
-403.0
 30
0.0
 40
1.0
 50
180.0
 51
270.0
  0
LINE
 62
0
  8
0
 10
14.0
 20
-403.0
 30
0.0
 11
12.0
 21
-403.0
 31
0.0
  0
ARC
 62
0
  8
0
 10
12.0
 20
-401.0
 30
0.0
 40
2.0
 50
180.0
 51
270.0
  0
LINE
 62
0
  8
0
 10
10.0
 20
-401.0
 30
0.0
 11
10.0
 21
-395.0
 31
0.0
  0
LINE
 62
0
  8
0
 10
10.0
 20
-422.0
 30
0.0
 11
17.0
 21
-422.0
 31
0.0
  0
ARC
 62
0
  8
0
 10
18.0
 20
-422.0
 30
0.0
 40
1.0
 50
180.0
 51
270.0
  0
LINE
 62
0
  8
0
 10
18.0
 20
-423.0
 30
0.0
 11
21.0
 21
-423.0
 31
0.0
  0
ARC
 62
0
  8
0
 10
21.0
 20
-422.0
 30
0.0
 40
1.0
 50
270.0
 51
0.0
  0
LINE
 62
0
  8
0
 10
22.0
 20
-422.0
 30
0.0
 11
51.0
 21
-422.0
 31
0.0
  0
LINE
 62
0
  8
0
 10
51.0
 20
-422.0
 30
0.0
 11
51.0
 21
-428.0
 31
0.0
  0
ARC
 62
0
  8
0
 10
49.0
 20
-428.0
 30
0.0
 40
2.0
 50
270.0
 51
0.0
  0
LINE
 62
0
  8
0
 10
49.0
 20
-430.0
 30
0.0
 11
12.0
 21
-430.0
 31
0.0
  0
ARC
 62
0
  8
0
 10
12.0
 20
-428.0
 30
0.0
 40
2.0
 50
180.0
 51
270.0
  0
LINE
 62
0
  8
0
 10
10.0
 20
-428.0
 30
0.0
 11
10.0
 21
-422.0
 31
0.0
  0
LINE
 62
0
  8
0
 10
10.0
 20
-449.0
 30
0.0
 11
15.0
 21
-449.0
 31
0.0
  0
ARC
 62
0
  8
0
 10
15.0
 20
-450.0
 30
0.0
 40
1.0
 50
90.0
 51
180.0
  0
LINE
 62
0
  8
0
 10
14.0
 20
-450.0
 30
0.0
 11
14.0
 21
-458.0
 31
0.0
  0
ARC
 62
0
  8
0
 10
15.0
 20
-458.0
 30
0.0
 40
1.0
 50
180.0
 51
270.0
  0
LINE
 62
0
  8
0
 10
15.0
 20
-459.0
 30
0.0
 11
10.0
 21
-459.0
 31
0.0
  0
LINE
 62
0
  8
0
 10
10.0
 20
-459.0
 30
0.0
 11
10.0
 21
-449.0
 31
0.0
  0
ARC
 62
0
  8
0
 10
12.0
 20
-478.0
 30
0.0
 40
2.0
 50
90.0
 51
180.0
  0
LINE
 62
0
  8
0
 10
12.0
 20
-476.0
 30
0.0
 11
14.0
 21
-476.0
 31
0.0
  0
ARC
 62
0
  8
0
 10
15.0
 20
-476.0
 30
0.0
 40
1.0
 50
180.0
 51
270.0
  0
LINE
 62
0
  8
0
 10
15.0
 20
-477.0
 30
0.0
 11
18.0
 21
-477.0
 31
0.0
  0
ARC
 62
0
  8
0
 10
18.0
 20
-476.0
 30
0.0
 40
1.0
 50
270.0
 51
0.0
  0
LINE
 62
0
  8
0
 10
19.0
 20
-476.0
 30
0.0
 11
49.0
 21
-476.0
 31
0.0
  0
ARC
 62
0
  8
0
 10
49.0
 20
-478.0
 30
0.0
 40
2.0
 50
0.0
 51
90.0
  0
LINE
 62
0
  8
0
 10
51.0
 20
-478.0
 30
0.0
 11
51.0
 21
-489.0
 31
0.0
  0
LINE
 62
0
  8
0
 10
51.0
 20
-489.0
 30
0.0
 11
22.0
 21
-489.0
 31
0.0
  0
ARC
 62
0
  8
0
 10
21.0
 20
-489.0
 30
0.0
 40
1.0
 50
270.0
 51
0.0
  0
LINE
 62
0
  8
0
 10
21.0
 20
-490.0
 30
0.0
 11
18.0
 21
-490.0
 31
0.0
  0
ARC
 62
0
  8
0
 10
18.0
 20
-489.0
 30
0.0
 40
1.0
 50
180.0
 51
270.0
  0
LINE
 62
0
  8
0
 10
17.0
 20
-489.0
 30
0.0
 11
15.0
 21
-489.0
 31
0.0
  0
ARC
 62
0
  8
0
 10
15.0
 20
-490.0
 30
0.0
 40
1.0
 50
90.0
 51
180.0
  0
LINE
 62
0
  8
0
 10
14.0
 20
-490.0
 30
0.0
 11
14.0
 21
-498.0
 31
0.0
  0
ARC
 62
0
  8
0
 10
15.0
 20
-498.0
 30
0.0
 40
1.0
 50
180.0
 51
270.0
  0
LINE
 62
0
  8
0
 10
15.0
 20
-499.0
 30
0.0
 11
17.0
 21
-499.0
 31
0.0
  0
ARC
 62
0
  8
0
 10
18.0
 20
-499.0
 30
0.0
 40
1.0
 50
180.0
 51
270.0
  0
LINE
 62
0
  8
0
 10
18.0
 20
-500.0
 30
0.0
 11
21.0
 21
-500.0
 31
0.0
  0
ARC
 62
0
  8
0
 10
21.0
 20
-499.0
 30
0.0
 40
1.0
 50
270.0
 51
0.0
  0
LINE
 62
0
  8
0
 10
22.0
 20
-499.0
 30
0.0
 11
51.0
 21
-499.0
 31
0.0
  0
LINE
 62
0
  8
0
 10
51.0
 20
-499.0
 30
0.0
 11
51.0
 21
-505.0
 31
0.0
  0
ARC
 62
0
  8
0
 10
49.0
 20
-505.0
 30
0.0
 40
2.0
 50
270.0
 51
0.0
  0
LINE
 62
0
  8
0
 10
49.0
 20
-507.0
 30
0.0
 11
19.0
 21
-507.0
 31
0.0
  0
ARC
 62
0
  8
0
 10
18.0
 20
-507.0
 30
0.0
 40
1.0
 50
270.0
 51
0.0
  0
LINE
 62
0
  8
0
 10
18.0
 20
-508.0
 30
0.0
 11
15.0
 21
-508.0
 31
0.0
  0
ARC
 62
0
  8
0
 10
15.0
 20
-507.0
 30
0.0
 40
1.0
 50
180.0
 51
270.0
  0
LINE
 62
0
  8
0
 10
14.0
 20
-507.0
 30
0.0
 11
12.0
 21
-507.0
 31
0.0
  0
ARC
 62
0
  8
0
 10
12.0
 20
-505.0
 30
0.0
 40
2.0
 50
180.0
 51
270.0
  0
LINE
 62
0
  8
0
 10
10.0
 20
-505.0
 30
0.0
 11
10.0
 21
-478.0
 31
0.0
  0
ARC
 62
0
  8
0
 10
12.0
 20
-520.0
 30
0.0
 40
2.0
 50
90.0
 51
180.0
  0
LINE
 62
0
  8
0
 10
12.0
 20
-518.0
 30
0.0
 11
14.0
 21
-518.0
 31
0.0
  0
ARC
 62
0
  8
0
 10
15.0
 20
-518.0
 30
0.0
 40
1.0
 50
180.0
 51
270.0
  0
LINE
 62
0
  8
0
 10
15.0
 20
-519.0
 30
0.0
 11
18.0
 21
-519.0
 31
0.0
  0
ARC
 62
0
  8
0
 10
18.0
 20
-518.0
 30
0.0
 40
1.0
 50
270.0
 51
0.0
  0
LINE
 62
0
  8
0
 10
19.0
 20
-518.0
 30
0.0
 11
49.0
 21
-518.0
 31
0.0
  0
ARC
 62
0
  8
0
 10
49.0
 20
-520.0
 30
0.0
 40
2.0
 50
0.0
 51
90.0
  0
LINE
 62
0
  8
0
 10
51.0
 20
-520.0
 30
0.0
 11
51.0
 21
-531.0
 31
0.0
  0
LINE
 62
0
  8
0
 10
51.0
 20
-531.0
 30
0.0
 11
22.0
 21
-531.0
 31
0.0
  0
ARC
 62
0
  8
0
 10
21.0
 20
-531.0
 30
0.0
 40
1.0
 50
270.0
 51
0.0
  0
LINE
 62
0
  8
0
 10
21.0
 20
-532.0
 30
0.0
 11
18.0
 21
-532.0
 31
0.0
  0
ARC
 62
0
  8
0
 10
18.0
 20
-531.0
 30
0.0
 40
1.0
 50
180.0
 51
270.0
  0
LINE
 62
0
  8
0
 10
17.0
 20
-531.0
 30
0.0
 11
15.0
 21
-531.0
 31
0.0
  0
ARC
 62
0
  8
0
 10
15.0
 20
-532.0
 30
0.0
 40
1.0
 50
90.0
 51
180.0
  0
LINE
 62
0
  8
0
 10
14.0
 20
-532.0
 30
0.0
 11
14.0
 21
-540.0
 31
0.0
  0
ARC
 62
0
  8
0
 10
15.0
 20
-540.0
 30
0.0
 40
1.0
 50
180.0
 51
270.0
  0
LINE
 62
0
  8
0
 10
15.0
 20
-541.0
 30
0.0
 11
17.0
 21
-541.0
 31
0.0
  0
ARC
 62
0
  8
0
 10
18.0
 20
-541.0
 30
0.0
 40
1.0
 50
180.0
 51
270.0
  0
LINE
 62
0
  8
0
 10
18.0
 20
-542.0
 30
0.0
 11
21.0
 21
-542.0
 31
0.0
  0
ARC
 62
0
  8
0
 10
21.0
 20
-541.0
 30
0.0
 40
1.0
 50
270.0
 51
0.0
  0
LINE
 62
0
  8
0
 10
22.0
 20
-541.0
 30
0.0
 11
51.0
 21
-541.0
 31
0.0
  0
LINE
 62
0
  8
0
 10
51.0
 20
-541.0
 30
0.0
 11
51.0
 21
-547.0
 31
0.0
  0
ARC
 62
0
  8
0
 10
49.0
 20
-547.0
 30
0.0
 40
2.0
 50
270.0
 51
0.0
  0
LINE
 62
0
  8
0
 10
49.0
 20
-549.0
 30
0.0
 11
12.0
 21
-549.0
 31
0.0
  0
ARC
 62
0
  8
0
 10
12.0
 20
-547.0
 30
0.0
 40
2.0
 50
180.0
 51
270.0
  0
LINE
 62
0
  8
0
 10
10.0
 20
-547.0
 30
0.0
 11
10.0
 21
-520.0
 31
0.0
  0
ENDSEC
  0
EOF
